<?xml version="1.0" encoding="UTF-8" standalone="no"?>
<svg
   xmlns:dc="http://purl.org/dc/elements/1.1/"
   xmlns:cc="http://creativecommons.org/ns#"
   xmlns:rdf="http://www.w3.org/1999/02/22-rdf-syntax-ns#"
   xmlns:svg="http://www.w3.org/2000/svg"
   xmlns="http://www.w3.org/2000/svg"
   xmlns:sodipodi="http://sodipodi.sourceforge.net/DTD/sodipodi-0.dtd"
   xmlns:inkscape="http://www.inkscape.org/namespaces/inkscape"
   inkscape:version="1.0 (4035a4fb49, 2020-05-01)"
   sodipodi:docname="books.svg"
   id="svg8"
   version="1.1"
   viewBox="0 0 297 210"
   height="210mm"
   width="297mm">
  <defs
     id="defs2" />
  <sodipodi:namedview
     inkscape:guide-bbox="true"
     showguides="true"
     inkscape:window-maximized="1"
     inkscape:window-y="0"
     inkscape:window-x="0"
     inkscape:window-height="736"
     inkscape:window-width="1360"
     inkscape:snap-global="false"
     showgrid="false"
     inkscape:document-rotation="0"
     inkscape:current-layer="layer1"
     inkscape:document-units="mm"
     inkscape:cy="718.58539"
     inkscape:cx="466.37637"
     inkscape:zoom="0.24748737"
     inkscape:pageshadow="2"
     inkscape:pageopacity="0.0"
     borderopacity="1.0"
     bordercolor="#666666"
     pagecolor="#ffffff"
     id="base">
    <sodipodi:guide
       id="guide1066"
       orientation="0,-1"
       position="-161.01786,250.82142" />
  </sodipodi:namedview>
  <metadata
     id="metadata5">
    <rdf:RDF>
      <cc:Work
         rdf:about="">
        <dc:format>image/svg+xml</dc:format>
        <dc:type
           rdf:resource="http://purl.org/dc/dcmitype/StillImage" />
        <dc:title></dc:title>
      </cc:Work>
    </rdf:RDF>
  </metadata>
  <g
     id="layer1"
     inkscape:groupmode="layer"
     inkscape:label="Layer 1">
    <path
       d="m 74.807588,113.97507 c -9.61018,0 -17.34665,8.09067 -17.34665,18.14004 v 18.01904 c 0,10.04939 7.73647,18.13941 17.34665,18.13941 H 230.0889 c 1.72503,-0.25792 3.11558,-1.56087 3.57084,-3.28272 v -2.44691 c -0.43874,-1.65944 -1.745,-2.93251 -3.38338,-3.25372 H 212.82364 117.43277 82.671374 c -9.623909,0 -17.371949,-8.10215 -17.371949,-18.16589 0,-10.06375 7.74804,-18.1659 17.371949,-18.1659 h 34.761396 95.39087 17.06213 c 1.81878,-0.18156 3.30085,-1.52297 3.77397,-3.31234 v -2.44691 c -0.4265,-1.61316 -1.67272,-2.86061 -3.24715,-3.2241 z"
       style="fill:#dc0000;fill-opacity:0.956613;stroke:#cf7130;stroke-width:0.315593"
       id="path1108" />
    <rect
       style="fill:#c58fdc;fill-opacity:0.956613;stroke:none;stroke-width:0.264583"
       id="rect1044"
       width="397.4144"
       height="248.11072"
       x="-45.103745"
       y="-32.517994"
       ry="6.0111742" />
    <rect
       style="fill:#d76cff;fill-opacity:0.956613;stroke:none;stroke-width:0.264583"
       id="rect1064"
       width="3.0238097"
       height="0.75595242"
       x="213.73926"
       y="307.52939"
       ry="0.37797621" />
    <g
       transform="translate(0,1.0583333)"
       id="g1159">
      <rect
         ry="18.165506"
         y="122.95781"
         x="63.11235"
         height="36.331013"
         width="164.89598"
         id="rect905"
         style="fill:#ffffff;fill-opacity:0.956613;stroke:none;stroke-width:0.34921" />
      <path
         d="m 74.807588,113.97507 c -9.61018,0 -17.34665,8.09067 -17.34665,18.14004 v 18.01904 c 0,10.04939 7.73647,18.13941 17.34665,18.13941 H 230.0889 c 1.72503,-0.25792 3.11558,-1.56087 3.57084,-3.28272 v -2.44691 c -0.43874,-1.65944 -1.745,-2.93251 -3.38338,-3.25372 H 212.82364 117.43277 82.671374 c -9.623909,0 -17.371949,-8.10215 -17.371949,-18.16589 0,-10.06375 7.74804,-18.1659 17.371949,-18.1659 h 34.761396 95.39087 17.06213 c 1.81878,-0.18156 3.30085,-1.52297 3.77397,-3.31234 v -2.44691 c -0.4265,-1.61316 -1.67272,-2.86061 -3.24715,-3.2241 z"
         style="fill:#dc0000;fill-opacity:0.956613;stroke:#cf7130;stroke-width:0.315593"
         id="path903" />
    </g>
    <g
       transform="matrix(0.86843277,0,0,1.0004037,16.341748,-6.2262735)"
       id="g1024">
      <path
         d="m 88.138132,32.765676 c -8.2389,0 -14.87144,6.633059 -14.87144,14.871959 v 14.77274 c 0,8.238901 6.63254,14.871449 14.87144,14.871449 H 221.26231 c 1.47888,-0.21145 2.67101,-1.279668 3.06131,-2.69131 v -2.006079 c -0.37613,-1.36049 -1.496,-2.4042 -2.9006,-2.667539 H 206.46063 124.68112 94.879842 c -8.25067,0 -14.89315,-6.642481 -14.89315,-14.893151 0,-8.250671 6.64248,-14.893146 14.89315,-14.893146 h 29.801278 81.77951 14.62753 c 1.55926,-0.148852 2.82985,-1.248601 3.23546,-2.715596 v -2.006079 c -0.36564,-1.322536 -1.43404,-2.345246 -2.78381,-2.643248 z"
         style="fill:#0084c8;fill-opacity:0.956613;stroke:#cf7130;stroke-width:0.264583"
         id="rect833" />
      <rect
         ry="14.892912"
         y="40.130844"
         x="79.986832"
         height="29.785824"
         width="141.36691"
         id="rect835"
         style="fill:#ffffff;fill-opacity:0.956613;stroke:none;stroke-width:0.292767" />
    </g>
    <g
       transform="translate(-3.2348189,-7.9375002)"
       id="g1020">
      <path
         id="path899"
         style="fill:#ff9900;fill-opacity:0.956613;stroke:#cf7130;stroke-width:0.264583"
         d="m 209.45217,78.274054 c 8.2389,0 14.87145,6.633101 14.87145,14.872041 v 14.772835 c 0,8.23895 -6.63255,14.87152 -14.87145,14.87152 H 76.328002 c -1.47888,-0.21145 -2.67101,-1.27967 -3.06131,-2.69132 v -2.00609 c 0.37613,-1.36049 1.496,-2.40421 2.9006,-2.66755 h 14.9624 81.779498 29.80128 c 8.25067,0 14.89314,-6.64251 14.89314,-14.89323 0,-8.250725 -6.64247,-14.893246 -14.89314,-14.893246 H 172.90919 91.129692 76.502152 c -1.55926,-0.148849 -2.82985,-1.248598 -3.23546,-2.715609 v -2.006089 c 0.36564,-1.322541 1.43404,-2.345262 2.78381,-2.643262 z" />
      <rect
         transform="scale(-1,1)"
         style="fill:#ffffff;fill-opacity:0.956613;stroke:none;stroke-width:0.292767"
         id="rect901"
         width="141.36691"
         height="29.785824"
         x="-217.60347"
         y="85.639175"
         ry="14.892912" />
    </g>
    <rect
       style="fill:#804d00;fill-opacity:0.956613;stroke:none;stroke-width:0.435826"
       id="rect943"
       width="270.51736"
       height="25.025143"
       x="10.30166"
       y="169.50336"
       ry="12.512571" />
    <path
       d="m 76.065201,115.56246 c -1.18318,0 -2.335501,0.0889 -3.446359,0.25431 0.834623,1.40693 2.878028,2.39693 5.279956,2.39693 H 208.94258 c 2.5443,0 4.68682,-1.11063 5.41578,-2.65124 z"
       style="fill:#170000;fill-opacity:0.309756;stroke:none;stroke-width:0.244369"
       id="path1141" />
    <path
       transform="scale(0.26458333)"
       d="M 239.90625 640.64258 C 251.38093 650.98444 266.33155 657.23828 282.73828 657.23828 L 869.62695 657.23828 C 876.14675 656.26347 881.40238 651.33981 883.12305 644.83203 L 883.12305 640.64258 L 239.90625 640.64258 z "
       style="fill:#000000;fill-opacity:0.187833;stroke:none;stroke-width:1.19279"
       id="path1151" />
    <path
       d="m 84.635828,70.328426 c 2.23232,1.716271 5.098889,2.745237 8.233221,2.745237 H 208.50944 c 1.24747,-0.166066 2.25836,-0.986168 2.62638,-2.078876 -1.53433,-0.430247 -3.18279,-0.666361 -4.90282,-0.666361 z"
       style="fill:#000000;fill-opacity:0.476156;stroke:#cf7130;stroke-width:0.22177"
       id="path1161" />
  </g>
</svg>
