<?xml version="1.0" encoding="UTF-8" standalone="no"?>
<svg
   xmlns:dc="http://purl.org/dc/elements/1.1/"
   xmlns:cc="http://creativecommons.org/ns#"
   xmlns:rdf="http://www.w3.org/1999/02/22-rdf-syntax-ns#"
   xmlns:svg="http://www.w3.org/2000/svg"
   xmlns="http://www.w3.org/2000/svg"
   xmlns:sodipodi="http://sodipodi.sourceforge.net/DTD/sodipodi-0.dtd"
   xmlns:inkscape="http://www.inkscape.org/namespaces/inkscape"
   width="297mm"
   height="210mm"
   viewBox="0 0 297 210"
   version="1.1"
   id="svg8"
   inkscape:version="1.0.1 (3bc2e813f5, 2020-09-07)"
   sodipodi:docname="ownership.svg">
  <defs
     id="defs2">
    <rect
       x="55.457233"
       y="133.39445"
       width="42.149998"
       height="24.020014"
       id="rect539" />
    <rect
       x="-144.03719"
       y="122.90983"
       width="80.746201"
       height="82.881317"
       id="rect449" />
    <rect
       x="61.048557"
       y="29.854473"
       width="39.604843"
       height="17.815886"
       id="rect364" />
    <rect
       x="25.875341"
       y="107.4631"
       width="78.499382"
       height="97.439728"
       id="rect349" />
    <rect
       x="25.875341"
       y="107.4631"
       width="78.499382"
       height="97.439728"
       id="rect433" />
    <rect
       x="61.048557"
       y="29.854473"
       width="39.604843"
       height="17.815886"
       id="rect435" />
    <rect
       x="25.875341"
       y="107.4631"
       width="78.499382"
       height="97.439728"
       id="rect490" />
    <rect
       x="25.875341"
       y="107.4631"
       width="78.499382"
       height="97.439728"
       id="rect496" />
    <rect
       x="25.875341"
       y="107.4631"
       width="78.499382"
       height="97.439728"
       id="rect515" />
    <rect
       x="55.457233"
       y="133.39445"
       width="42.149998"
       height="24.020014"
       id="rect549" />
  </defs>
  <sodipodi:namedview
     id="base"
     pagecolor="#808080"
     bordercolor="#666666"
     borderopacity="1.0"
     inkscape:pageopacity="0"
     inkscape:pageshadow="2"
     inkscape:zoom="0.35"
     inkscape:cx="548.7123"
     inkscape:cy="599.65174"
     inkscape:document-units="mm"
     inkscape:current-layer="layer1"
     inkscape:document-rotation="0"
     showgrid="false"
     inkscape:snap-global="false"
     inkscape:window-width="1356"
     inkscape:window-height="741"
     inkscape:window-x="0"
     inkscape:window-y="0"
     inkscape:window-maximized="0"
     inkscape:pagecheckerboard="true" />
  <metadata
     id="metadata5">
    <rdf:RDF>
      <cc:Work
         rdf:about="">
        <dc:format>image/svg+xml</dc:format>
        <dc:type
           rdf:resource="http://purl.org/dc/dcmitype/StillImage" />
        <dc:title></dc:title>
      </cc:Work>
    </rdf:RDF>
  </metadata>
  <g
     inkscape:label="Layer 1"
     inkscape:groupmode="layer"
     id="layer1">
    <rect
       style="fill:#ffffff;fill-opacity:1;stroke-width:0.624314"
       id="rect643"
       width="400.0412"
       height="281.16837"
       x="-41.237381"
       y="-32.689686"
       ry="1.3708712" />
    <g
       id="g121"
       transform="translate(-28.140199,-31.434046)" />
    <g
       id="g345"
       transform="rotate(90,149.41817,153.84611)">
      <g
         id="g277">
        <rect
           style="fill:#669900;stroke-width:0.278327"
           id="rect14"
           width="52.307636"
           height="240.93164"
           x="138.15129"
           y="33.63702"
           ry="0.7481305" />
        <g
           id="g103"
           transform="translate(-17.027885,2.2157482)">
          <path
             id="path16"
             style="fill:#ffcc00;stroke-width:0.264583"
             d="m 155.91468,262.89199 c -0.11018,0 -0.21395,0.0225 -0.3111,0.0589 a 2.7558092,3.3916183 0 0 0 -0.15348,-0.006 2.7558092,3.3916183 0 0 0 -2.7559,3.39153 2.7558092,3.3916183 0 0 0 2.67684,3.38997 c 0.1503,0.11746 0.33725,0.19017 0.54364,0.19017 h 9.73119 c 0.49089,0 0.88574,-0.39536 0.88574,-0.88625 v -5.25291 c 0,-0.49089 -0.39485,-0.88574 -0.88574,-0.88574 z" />
          <path
             id="path35"
             style="fill:#ffcc00;stroke-width:0.264583"
             d="m 155.91468,253.3929 c -0.11018,0 -0.21395,0.0225 -0.3111,0.0589 a 2.7558092,3.3916183 0 0 0 -0.15348,-0.006 2.7558092,3.3916183 0 0 0 -2.7559,3.39153 2.7558092,3.3916183 0 0 0 2.67684,3.38997 c 0.1503,0.11746 0.33725,0.19017 0.54364,0.19017 h 9.73119 c 0.49089,0 0.88574,-0.39536 0.88574,-0.88625 v -5.25291 c 0,-0.49089 -0.39485,-0.88574 -0.88574,-0.88574 z" />
          <path
             id="path37"
             style="fill:#ffcc00;stroke-width:0.264583"
             d="m 155.91468,243.89383 c -0.11018,0 -0.21395,0.0225 -0.3111,0.0589 a 2.7558092,3.3916183 0 0 0 -0.15348,-0.006 2.7558092,3.3916183 0 0 0 -2.7559,3.39153 2.7558092,3.3916183 0 0 0 2.67684,3.38997 c 0.1503,0.11746 0.33725,0.19017 0.54364,0.19017 h 9.73119 c 0.49089,0 0.88574,-0.39536 0.88574,-0.88625 v -5.25291 c 0,-0.49089 -0.39485,-0.88574 -0.88574,-0.88574 z" />
          <path
             id="path39"
             style="fill:#ffcc00;stroke-width:0.264583"
             d="m 155.91468,234.39476 c -0.11018,0 -0.21395,0.0225 -0.3111,0.0589 a 2.7558092,3.3916183 0 0 0 -0.15348,-0.006 2.7558092,3.3916183 0 0 0 -2.7559,3.39153 2.7558092,3.3916183 0 0 0 2.67684,3.38997 c 0.1503,0.11746 0.33725,0.19017 0.54364,0.19017 h 9.73119 c 0.49089,0 0.88574,-0.39536 0.88574,-0.88625 v -5.25291 c 0,-0.49089 -0.39485,-0.88574 -0.88574,-0.88574 z" />
          <path
             id="path53"
             style="fill:#ffcc00;stroke-width:0.264583"
             d="m 155.91468,262.89199 c -0.11018,0 -0.21395,0.0225 -0.3111,0.0589 a 2.7558092,3.3916183 0 0 0 -0.15348,-0.006 2.7558092,3.3916183 0 0 0 -2.7559,3.39153 2.7558092,3.3916183 0 0 0 2.67684,3.38997 c 0.1503,0.11746 0.33725,0.19017 0.54364,0.19017 h 9.73119 c 0.49089,0 0.88574,-0.39536 0.88574,-0.88625 v -5.25291 c 0,-0.49089 -0.39485,-0.88574 -0.88574,-0.88574 z" />
          <path
             id="path55"
             style="fill:#ffcc00;stroke-width:0.264583"
             d="m 155.91468,253.3929 c -0.11018,0 -0.21395,0.0225 -0.3111,0.0589 a 2.7558092,3.3916183 0 0 0 -0.15348,-0.006 2.7558092,3.3916183 0 0 0 -2.7559,3.39153 2.7558092,3.3916183 0 0 0 2.67684,3.38997 c 0.1503,0.11746 0.33725,0.19017 0.54364,0.19017 h 9.73119 c 0.49089,0 0.88574,-0.39536 0.88574,-0.88625 v -5.25291 c 0,-0.49089 -0.39485,-0.88574 -0.88574,-0.88574 z" />
          <path
             id="path57"
             style="fill:#ffcc00;stroke-width:0.264583"
             d="m 155.91468,243.89383 c -0.11018,0 -0.21395,0.0225 -0.3111,0.0589 a 2.7558092,3.3916183 0 0 0 -0.15348,-0.006 2.7558092,3.3916183 0 0 0 -2.7559,3.39153 2.7558092,3.3916183 0 0 0 2.67684,3.38997 c 0.1503,0.11746 0.33725,0.19017 0.54364,0.19017 h 9.73119 c 0.49089,0 0.88574,-0.39536 0.88574,-0.88625 v -5.25291 c 0,-0.49089 -0.39485,-0.88574 -0.88574,-0.88574 z" />
          <path
             id="path59"
             style="fill:#ffcc00;stroke-width:0.264583"
             d="m 155.91468,234.39476 c -0.11018,0 -0.21395,0.0225 -0.3111,0.0589 a 2.7558092,3.3916183 0 0 0 -0.15348,-0.006 2.7558092,3.3916183 0 0 0 -2.7559,3.39153 2.7558092,3.3916183 0 0 0 2.67684,3.38997 c 0.1503,0.11746 0.33725,0.19017 0.54364,0.19017 h 9.73119 c 0.49089,0 0.88574,-0.39536 0.88574,-0.88625 v -5.25291 c 0,-0.49089 -0.39485,-0.88574 -0.88574,-0.88574 z" />
        </g>
        <g
           id="g139"
           transform="translate(-17.027885,-95.361395)">
          <path
             id="path123"
             style="fill:#ffcc00;stroke-width:0.264583"
             d="m 155.91468,262.89199 c -0.11018,0 -0.21395,0.0225 -0.3111,0.0589 a 2.7558092,3.3916183 0 0 0 -0.15348,-0.006 2.7558092,3.3916183 0 0 0 -2.7559,3.39153 2.7558092,3.3916183 0 0 0 2.67684,3.38997 c 0.1503,0.11746 0.33725,0.19017 0.54364,0.19017 h 9.73119 c 0.49089,0 0.88574,-0.39536 0.88574,-0.88625 v -5.25291 c 0,-0.49089 -0.39485,-0.88574 -0.88574,-0.88574 z" />
          <path
             id="path125"
             style="fill:#ffcc00;stroke-width:0.264583"
             d="m 155.91468,253.3929 c -0.11018,0 -0.21395,0.0225 -0.3111,0.0589 a 2.7558092,3.3916183 0 0 0 -0.15348,-0.006 2.7558092,3.3916183 0 0 0 -2.7559,3.39153 2.7558092,3.3916183 0 0 0 2.67684,3.38997 c 0.1503,0.11746 0.33725,0.19017 0.54364,0.19017 h 9.73119 c 0.49089,0 0.88574,-0.39536 0.88574,-0.88625 v -5.25291 c 0,-0.49089 -0.39485,-0.88574 -0.88574,-0.88574 z" />
          <path
             id="path127"
             style="fill:#ffcc00;stroke-width:0.264583"
             d="m 155.91468,243.89383 c -0.11018,0 -0.21395,0.0225 -0.3111,0.0589 a 2.7558092,3.3916183 0 0 0 -0.15348,-0.006 2.7558092,3.3916183 0 0 0 -2.7559,3.39153 2.7558092,3.3916183 0 0 0 2.67684,3.38997 c 0.1503,0.11746 0.33725,0.19017 0.54364,0.19017 h 9.73119 c 0.49089,0 0.88574,-0.39536 0.88574,-0.88625 v -5.25291 c 0,-0.49089 -0.39485,-0.88574 -0.88574,-0.88574 z" />
          <path
             id="path129"
             style="fill:#ffcc00;stroke-width:0.264583"
             d="m 155.91468,234.39476 c -0.11018,0 -0.21395,0.0225 -0.3111,0.0589 a 2.7558092,3.3916183 0 0 0 -0.15348,-0.006 2.7558092,3.3916183 0 0 0 -2.7559,3.39153 2.7558092,3.3916183 0 0 0 2.67684,3.38997 c 0.1503,0.11746 0.33725,0.19017 0.54364,0.19017 h 9.73119 c 0.49089,0 0.88574,-0.39536 0.88574,-0.88625 v -5.25291 c 0,-0.49089 -0.39485,-0.88574 -0.88574,-0.88574 z" />
          <path
             id="path131"
             style="fill:#ffcc00;stroke-width:0.264583"
             d="m 155.91468,262.89199 c -0.11018,0 -0.21395,0.0225 -0.3111,0.0589 a 2.7558092,3.3916183 0 0 0 -0.15348,-0.006 2.7558092,3.3916183 0 0 0 -2.7559,3.39153 2.7558092,3.3916183 0 0 0 2.67684,3.38997 c 0.1503,0.11746 0.33725,0.19017 0.54364,0.19017 h 9.73119 c 0.49089,0 0.88574,-0.39536 0.88574,-0.88625 v -5.25291 c 0,-0.49089 -0.39485,-0.88574 -0.88574,-0.88574 z" />
          <path
             id="path133"
             style="fill:#ffcc00;stroke-width:0.264583"
             d="m 155.91468,253.3929 c -0.11018,0 -0.21395,0.0225 -0.3111,0.0589 a 2.7558092,3.3916183 0 0 0 -0.15348,-0.006 2.7558092,3.3916183 0 0 0 -2.7559,3.39153 2.7558092,3.3916183 0 0 0 2.67684,3.38997 c 0.1503,0.11746 0.33725,0.19017 0.54364,0.19017 h 9.73119 c 0.49089,0 0.88574,-0.39536 0.88574,-0.88625 v -5.25291 c 0,-0.49089 -0.39485,-0.88574 -0.88574,-0.88574 z" />
          <path
             id="path135"
             style="fill:#ffcc00;stroke-width:0.264583"
             d="m 155.91468,243.89383 c -0.11018,0 -0.21395,0.0225 -0.3111,0.0589 a 2.7558092,3.3916183 0 0 0 -0.15348,-0.006 2.7558092,3.3916183 0 0 0 -2.7559,3.39153 2.7558092,3.3916183 0 0 0 2.67684,3.38997 c 0.1503,0.11746 0.33725,0.19017 0.54364,0.19017 h 9.73119 c 0.49089,0 0.88574,-0.39536 0.88574,-0.88625 v -5.25291 c 0,-0.49089 -0.39485,-0.88574 -0.88574,-0.88574 z" />
          <path
             id="path137"
             style="fill:#ffcc00;stroke-width:0.264583"
             d="m 155.91468,234.39476 c -0.11018,0 -0.21395,0.0225 -0.3111,0.0589 a 2.7558092,3.3916183 0 0 0 -0.15348,-0.006 2.7558092,3.3916183 0 0 0 -2.7559,3.39153 2.7558092,3.3916183 0 0 0 2.67684,3.38997 c 0.1503,0.11746 0.33725,0.19017 0.54364,0.19017 h 9.73119 c 0.49089,0 0.88574,-0.39536 0.88574,-0.88625 v -5.25291 c 0,-0.49089 -0.39485,-0.88574 -0.88574,-0.88574 z" />
        </g>
        <g
           id="g175"
           transform="translate(-17.027885,-144.14999)">
          <path
             id="path159"
             style="fill:#ffcc00;stroke-width:0.264583"
             d="m 155.91468,262.89199 c -0.11018,0 -0.21395,0.0225 -0.3111,0.0589 a 2.7558092,3.3916183 0 0 0 -0.15348,-0.006 2.7558092,3.3916183 0 0 0 -2.7559,3.39153 2.7558092,3.3916183 0 0 0 2.67684,3.38997 c 0.1503,0.11746 0.33725,0.19017 0.54364,0.19017 h 9.73119 c 0.49089,0 0.88574,-0.39536 0.88574,-0.88625 v -5.25291 c 0,-0.49089 -0.39485,-0.88574 -0.88574,-0.88574 z" />
          <path
             id="path161"
             style="fill:#ffcc00;stroke-width:0.264583"
             d="m 155.91468,253.3929 c -0.11018,0 -0.21395,0.0225 -0.3111,0.0589 a 2.7558092,3.3916183 0 0 0 -0.15348,-0.006 2.7558092,3.3916183 0 0 0 -2.7559,3.39153 2.7558092,3.3916183 0 0 0 2.67684,3.38997 c 0.1503,0.11746 0.33725,0.19017 0.54364,0.19017 h 9.73119 c 0.49089,0 0.88574,-0.39536 0.88574,-0.88625 v -5.25291 c 0,-0.49089 -0.39485,-0.88574 -0.88574,-0.88574 z" />
          <path
             id="path163"
             style="fill:#ffcc00;stroke-width:0.264583"
             d="m 155.91468,243.89383 c -0.11018,0 -0.21395,0.0225 -0.3111,0.0589 a 2.7558092,3.3916183 0 0 0 -0.15348,-0.006 2.7558092,3.3916183 0 0 0 -2.7559,3.39153 2.7558092,3.3916183 0 0 0 2.67684,3.38997 c 0.1503,0.11746 0.33725,0.19017 0.54364,0.19017 h 9.73119 c 0.49089,0 0.88574,-0.39536 0.88574,-0.88625 v -5.25291 c 0,-0.49089 -0.39485,-0.88574 -0.88574,-0.88574 z" />
          <path
             id="path165"
             style="fill:#ffcc00;stroke-width:0.264583"
             d="m 155.91468,234.39476 c -0.11018,0 -0.21395,0.0225 -0.3111,0.0589 a 2.7558092,3.3916183 0 0 0 -0.15348,-0.006 2.7558092,3.3916183 0 0 0 -2.7559,3.39153 2.7558092,3.3916183 0 0 0 2.67684,3.38997 c 0.1503,0.11746 0.33725,0.19017 0.54364,0.19017 h 9.73119 c 0.49089,0 0.88574,-0.39536 0.88574,-0.88625 v -5.25291 c 0,-0.49089 -0.39485,-0.88574 -0.88574,-0.88574 z" />
          <path
             id="path167"
             style="fill:#ffcc00;stroke-width:0.264583"
             d="m 155.91468,262.89199 c -0.11018,0 -0.21395,0.0225 -0.3111,0.0589 a 2.7558092,3.3916183 0 0 0 -0.15348,-0.006 2.7558092,3.3916183 0 0 0 -2.7559,3.39153 2.7558092,3.3916183 0 0 0 2.67684,3.38997 c 0.1503,0.11746 0.33725,0.19017 0.54364,0.19017 h 9.73119 c 0.49089,0 0.88574,-0.39536 0.88574,-0.88625 v -5.25291 c 0,-0.49089 -0.39485,-0.88574 -0.88574,-0.88574 z" />
          <path
             id="path169"
             style="fill:#ffcc00;stroke-width:0.264583"
             d="m 155.91468,253.3929 c -0.11018,0 -0.21395,0.0225 -0.3111,0.0589 a 2.7558092,3.3916183 0 0 0 -0.15348,-0.006 2.7558092,3.3916183 0 0 0 -2.7559,3.39153 2.7558092,3.3916183 0 0 0 2.67684,3.38997 c 0.1503,0.11746 0.33725,0.19017 0.54364,0.19017 h 9.73119 c 0.49089,0 0.88574,-0.39536 0.88574,-0.88625 v -5.25291 c 0,-0.49089 -0.39485,-0.88574 -0.88574,-0.88574 z" />
          <path
             id="path171"
             style="fill:#ffcc00;stroke-width:0.264583"
             d="m 155.91468,243.89383 c -0.11018,0 -0.21395,0.0225 -0.3111,0.0589 a 2.7558092,3.3916183 0 0 0 -0.15348,-0.006 2.7558092,3.3916183 0 0 0 -2.7559,3.39153 2.7558092,3.3916183 0 0 0 2.67684,3.38997 c 0.1503,0.11746 0.33725,0.19017 0.54364,0.19017 h 9.73119 c 0.49089,0 0.88574,-0.39536 0.88574,-0.88625 v -5.25291 c 0,-0.49089 -0.39485,-0.88574 -0.88574,-0.88574 z" />
          <path
             id="path173"
             style="fill:#ffcc00;stroke-width:0.264583"
             d="m 155.91468,234.39476 c -0.11018,0 -0.21395,0.0225 -0.3111,0.0589 a 2.7558092,3.3916183 0 0 0 -0.15348,-0.006 2.7558092,3.3916183 0 0 0 -2.7559,3.39153 2.7558092,3.3916183 0 0 0 2.67684,3.38997 c 0.1503,0.11746 0.33725,0.19017 0.54364,0.19017 h 9.73119 c 0.49089,0 0.88574,-0.39536 0.88574,-0.88625 v -5.25291 c 0,-0.49089 -0.39485,-0.88574 -0.88574,-0.88574 z" />
        </g>
        <g
           id="g193"
           transform="translate(-17.027885,-192.93856)">
          <path
             id="path177"
             style="fill:#ffcc00;stroke-width:0.264583"
             d="m 155.91468,262.89199 c -0.11018,0 -0.21395,0.0225 -0.3111,0.0589 a 2.7558092,3.3916183 0 0 0 -0.15348,-0.006 2.7558092,3.3916183 0 0 0 -2.7559,3.39153 2.7558092,3.3916183 0 0 0 2.67684,3.38997 c 0.1503,0.11746 0.33725,0.19017 0.54364,0.19017 h 9.73119 c 0.49089,0 0.88574,-0.39536 0.88574,-0.88625 v -5.25291 c 0,-0.49089 -0.39485,-0.88574 -0.88574,-0.88574 z" />
          <path
             id="path179"
             style="fill:#ffcc00;stroke-width:0.264583"
             d="m 155.91468,253.3929 c -0.11018,0 -0.21395,0.0225 -0.3111,0.0589 a 2.7558092,3.3916183 0 0 0 -0.15348,-0.006 2.7558092,3.3916183 0 0 0 -2.7559,3.39153 2.7558092,3.3916183 0 0 0 2.67684,3.38997 c 0.1503,0.11746 0.33725,0.19017 0.54364,0.19017 h 9.73119 c 0.49089,0 0.88574,-0.39536 0.88574,-0.88625 v -5.25291 c 0,-0.49089 -0.39485,-0.88574 -0.88574,-0.88574 z" />
          <path
             id="path181"
             style="fill:#ffcc00;stroke-width:0.264583"
             d="m 155.91468,243.89383 c -0.11018,0 -0.21395,0.0225 -0.3111,0.0589 a 2.7558092,3.3916183 0 0 0 -0.15348,-0.006 2.7558092,3.3916183 0 0 0 -2.7559,3.39153 2.7558092,3.3916183 0 0 0 2.67684,3.38997 c 0.1503,0.11746 0.33725,0.19017 0.54364,0.19017 h 9.73119 c 0.49089,0 0.88574,-0.39536 0.88574,-0.88625 v -5.25291 c 0,-0.49089 -0.39485,-0.88574 -0.88574,-0.88574 z" />
          <path
             id="path183"
             style="fill:#ffcc00;stroke-width:0.264583"
             d="m 155.91468,234.39476 c -0.11018,0 -0.21395,0.0225 -0.3111,0.0589 a 2.7558092,3.3916183 0 0 0 -0.15348,-0.006 2.7558092,3.3916183 0 0 0 -2.7559,3.39153 2.7558092,3.3916183 0 0 0 2.67684,3.38997 c 0.1503,0.11746 0.33725,0.19017 0.54364,0.19017 h 9.73119 c 0.49089,0 0.88574,-0.39536 0.88574,-0.88625 v -5.25291 c 0,-0.49089 -0.39485,-0.88574 -0.88574,-0.88574 z" />
          <path
             id="path185"
             style="fill:#ffcc00;stroke-width:0.264583"
             d="m 155.91468,262.89199 c -0.11018,0 -0.21395,0.0225 -0.3111,0.0589 a 2.7558092,3.3916183 0 0 0 -0.15348,-0.006 2.7558092,3.3916183 0 0 0 -2.7559,3.39153 2.7558092,3.3916183 0 0 0 2.67684,3.38997 c 0.1503,0.11746 0.33725,0.19017 0.54364,0.19017 h 9.73119 c 0.49089,0 0.88574,-0.39536 0.88574,-0.88625 v -5.25291 c 0,-0.49089 -0.39485,-0.88574 -0.88574,-0.88574 z" />
          <path
             id="path187"
             style="fill:#ffcc00;stroke-width:0.264583"
             d="m 155.91468,253.3929 c -0.11018,0 -0.21395,0.0225 -0.3111,0.0589 a 2.7558092,3.3916183 0 0 0 -0.15348,-0.006 2.7558092,3.3916183 0 0 0 -2.7559,3.39153 2.7558092,3.3916183 0 0 0 2.67684,3.38997 c 0.1503,0.11746 0.33725,0.19017 0.54364,0.19017 h 9.73119 c 0.49089,0 0.88574,-0.39536 0.88574,-0.88625 v -5.25291 c 0,-0.49089 -0.39485,-0.88574 -0.88574,-0.88574 z" />
          <path
             id="path189"
             style="fill:#ffcc00;stroke-width:0.264583"
             d="m 155.91468,243.89383 c -0.11018,0 -0.21395,0.0225 -0.3111,0.0589 a 2.7558092,3.3916183 0 0 0 -0.15348,-0.006 2.7558092,3.3916183 0 0 0 -2.7559,3.39153 2.7558092,3.3916183 0 0 0 2.67684,3.38997 c 0.1503,0.11746 0.33725,0.19017 0.54364,0.19017 h 9.73119 c 0.49089,0 0.88574,-0.39536 0.88574,-0.88625 v -5.25291 c 0,-0.49089 -0.39485,-0.88574 -0.88574,-0.88574 z" />
          <path
             id="path191"
             style="fill:#ffcc00;stroke-width:0.264583"
             d="m 155.91468,234.39476 c -0.11018,0 -0.21395,0.0225 -0.3111,0.0589 a 2.7558092,3.3916183 0 0 0 -0.15348,-0.006 2.7558092,3.3916183 0 0 0 -2.7559,3.39153 2.7558092,3.3916183 0 0 0 2.67684,3.38997 c 0.1503,0.11746 0.33725,0.19017 0.54364,0.19017 h 9.73119 c 0.49089,0 0.88574,-0.39536 0.88574,-0.88625 v -5.25291 c 0,-0.49089 -0.39485,-0.88574 -0.88574,-0.88574 z" />
        </g>
        <g
           id="g229"
           transform="translate(-17.027885,-46.572829)">
          <path
             id="path213"
             style="fill:#ffcc00;stroke-width:0.264583"
             d="m 155.91468,262.89199 c -0.11018,0 -0.21395,0.0225 -0.3111,0.0589 a 2.7558092,3.3916183 0 0 0 -0.15348,-0.006 2.7558092,3.3916183 0 0 0 -2.7559,3.39153 2.7558092,3.3916183 0 0 0 2.67684,3.38997 c 0.1503,0.11746 0.33725,0.19017 0.54364,0.19017 h 9.73119 c 0.49089,0 0.88574,-0.39536 0.88574,-0.88625 v -5.25291 c 0,-0.49089 -0.39485,-0.88574 -0.88574,-0.88574 z" />
          <path
             id="path215"
             style="fill:#ffcc00;stroke-width:0.264583"
             d="m 155.91468,253.3929 c -0.11018,0 -0.21395,0.0225 -0.3111,0.0589 a 2.7558092,3.3916183 0 0 0 -0.15348,-0.006 2.7558092,3.3916183 0 0 0 -2.7559,3.39153 2.7558092,3.3916183 0 0 0 2.67684,3.38997 c 0.1503,0.11746 0.33725,0.19017 0.54364,0.19017 h 9.73119 c 0.49089,0 0.88574,-0.39536 0.88574,-0.88625 v -5.25291 c 0,-0.49089 -0.39485,-0.88574 -0.88574,-0.88574 z" />
          <path
             id="path217"
             style="fill:#ffcc00;stroke-width:0.264583"
             d="m 155.91468,243.89383 c -0.11018,0 -0.21395,0.0225 -0.3111,0.0589 a 2.7558092,3.3916183 0 0 0 -0.15348,-0.006 2.7558092,3.3916183 0 0 0 -2.7559,3.39153 2.7558092,3.3916183 0 0 0 2.67684,3.38997 c 0.1503,0.11746 0.33725,0.19017 0.54364,0.19017 h 9.73119 c 0.49089,0 0.88574,-0.39536 0.88574,-0.88625 v -5.25291 c 0,-0.49089 -0.39485,-0.88574 -0.88574,-0.88574 z" />
          <path
             id="path219"
             style="fill:#ffcc00;stroke-width:0.264583"
             d="m 155.91468,234.39476 c -0.11018,0 -0.21395,0.0225 -0.3111,0.0589 a 2.7558092,3.3916183 0 0 0 -0.15348,-0.006 2.7558092,3.3916183 0 0 0 -2.7559,3.39153 2.7558092,3.3916183 0 0 0 2.67684,3.38997 c 0.1503,0.11746 0.33725,0.19017 0.54364,0.19017 h 9.73119 c 0.49089,0 0.88574,-0.39536 0.88574,-0.88625 v -5.25291 c 0,-0.49089 -0.39485,-0.88574 -0.88574,-0.88574 z" />
          <path
             id="path221"
             style="fill:#ffcc00;stroke-width:0.264583"
             d="m 155.91468,262.89199 c -0.11018,0 -0.21395,0.0225 -0.3111,0.0589 a 2.7558092,3.3916183 0 0 0 -0.15348,-0.006 2.7558092,3.3916183 0 0 0 -2.7559,3.39153 2.7558092,3.3916183 0 0 0 2.67684,3.38997 c 0.1503,0.11746 0.33725,0.19017 0.54364,0.19017 h 9.73119 c 0.49089,0 0.88574,-0.39536 0.88574,-0.88625 v -5.25291 c 0,-0.49089 -0.39485,-0.88574 -0.88574,-0.88574 z" />
          <path
             id="path223"
             style="fill:#ffcc00;stroke-width:0.264583"
             d="m 155.91468,253.3929 c -0.11018,0 -0.21395,0.0225 -0.3111,0.0589 a 2.7558092,3.3916183 0 0 0 -0.15348,-0.006 2.7558092,3.3916183 0 0 0 -2.7559,3.39153 2.7558092,3.3916183 0 0 0 2.67684,3.38997 c 0.1503,0.11746 0.33725,0.19017 0.54364,0.19017 h 9.73119 c 0.49089,0 0.88574,-0.39536 0.88574,-0.88625 v -5.25291 c 0,-0.49089 -0.39485,-0.88574 -0.88574,-0.88574 z" />
          <path
             id="path225"
             style="fill:#ffcc00;stroke-width:0.264583"
             d="m 155.91468,243.89383 c -0.11018,0 -0.21395,0.0225 -0.3111,0.0589 a 2.7558092,3.3916183 0 0 0 -0.15348,-0.006 2.7558092,3.3916183 0 0 0 -2.7559,3.39153 2.7558092,3.3916183 0 0 0 2.67684,3.38997 c 0.1503,0.11746 0.33725,0.19017 0.54364,0.19017 h 9.73119 c 0.49089,0 0.88574,-0.39536 0.88574,-0.88625 v -5.25291 c 0,-0.49089 -0.39485,-0.88574 -0.88574,-0.88574 z" />
          <path
             id="path227"
             style="fill:#ffcc00;stroke-width:0.264583"
             d="m 155.91468,234.39476 c -0.11018,0 -0.21395,0.0225 -0.3111,0.0589 a 2.7558092,3.3916183 0 0 0 -0.15348,-0.006 2.7558092,3.3916183 0 0 0 -2.7559,3.39153 2.7558092,3.3916183 0 0 0 2.67684,3.38997 c 0.1503,0.11746 0.33725,0.19017 0.54364,0.19017 h 9.73119 c 0.49089,0 0.88574,-0.39536 0.88574,-0.88625 v -5.25291 c 0,-0.49089 -0.39485,-0.88574 -0.88574,-0.88574 z" />
        </g>
      </g>
      <g
         id="g291">
        <rect
           style="fill:#000000;stroke-width:0.264583"
           id="rect279"
           width="15.003961"
           height="37.848392"
           x="159.45628"
           y="61.31588"
           ry="0.7481305" />
        <rect
           style="fill:#000000;stroke-width:0.264583"
           id="rect281"
           width="15.003961"
           height="37.848392"
           x="159.45628"
           y="112.20042"
           ry="0.7481305" />
        <rect
           style="fill:#000000;stroke-width:0.264583"
           id="rect283"
           width="15.003961"
           height="37.848392"
           x="159.45628"
           y="163.18538"
           ry="0.7481305" />
        <rect
           style="fill:#000000;stroke-width:0.264583"
           id="rect285"
           width="15.003961"
           height="37.848392"
           x="159.45628"
           y="216.73215"
           ry="0.7481305" />
      </g>
    </g>
    <g
       id="g527"
       transform="translate(42.543546,-45.015744)">
      <text
         xml:space="preserve"
         id="text488"
         style="font-style:normal;font-weight:normal;font-size:10.5833px;line-height:1.25;font-family:sans-serif;white-space:pre;shape-inside:url(#rect490);fill:#3366cc;fill-opacity:1;stroke:none;"
         transform="matrix(1.3897732,0,0,1.445611,-16.418224,-82.934818)"><tspan
           x="25.875"
           y="138.67548"><tspan
             style="font-style:normal;font-variant:normal;font-weight:normal;font-stretch:normal;font-size:35.2778px;font-family:sans-serif;-inkscape-font-specification:'sans-serif, Normal';font-variant-ligatures:normal;font-variant-caps:normal;font-variant-numeric:normal;font-variant-east-asian:normal;fill:#3366cc">X</tspan></tspan></text>
      <path
         id="rect498"
         style="fill:#3366cc;stroke-width:0.143892"
         d="m -15.555251,171.50804 c -0.37456,0 -0.676254,0.0913 -0.676254,0.20473 v 9.95716 c 0,0.1134 0.301694,0.20458 0.676254,0.20458 h 7.9357607 v -6.9232 c 0,-0.1134 0.3016945,-0.20458 0.6762535,-0.20458 H 72.637578 c 0.374561,0 0.675744,0.0912 0.675744,0.20458 v 6.9232 h 9.181517 c 0.37456,0 0.675744,-0.0912 0.675744,-0.20458 v -9.95716 c 0,-0.1134 -0.301184,-0.20473 -0.675744,-0.20473 z" />
      <rect
         style="fill:#3366cc;stroke-width:0.355145"
         id="rect505"
         width="3.2897584"
         height="52.70364"
         x="33.34235"
         y="121.68948"
         ry="1.2324471" />
    </g>
    <g
       id="g521"
       transform="translate(-44.343685,-63.240591)"
       style="fill:#ff9900">
      <text
         xml:space="preserve"
         id="text509"
         style="font-style:normal;font-weight:normal;font-size:10.5833px;line-height:1.25;font-family:sans-serif;white-space:pre;shape-inside:url(#rect515);fill:#ff9900;fill-opacity:1;stroke:none;"
         transform="matrix(1.3897732,0,0,1.445611,213.48423,-67.750967)"><tspan
           x="25.875"
           y="138.67548"><tspan
             style="font-style:normal;font-variant:normal;font-weight:normal;font-stretch:normal;font-size:35.2778px;font-family:sans-serif;-inkscape-font-specification:'sans-serif, Normal';font-variant-ligatures:normal;font-variant-caps:normal;font-variant-numeric:normal;font-variant-east-asian:normal;fill:#ff9900">Y</tspan></tspan></text>
      <path
         id="path511"
         style="fill:#ff9900;stroke-width:0.143892"
         d="m 214.3472,186.69189 c -0.37456,0 -0.67626,0.0913 -0.67626,0.20473 v 9.95716 c 0,0.1134 0.3017,0.20458 0.67626,0.20458 h 7.93576 v -6.9232 c 0,-0.1134 0.30169,-0.20458 0.67625,-0.20458 h 79.58082 c 0.37456,0 0.67574,0.0912 0.67574,0.20458 v 6.9232 h 9.18152 c 0.37456,0 0.67574,-0.0912 0.67574,-0.20458 v -9.95716 c 0,-0.1134 -0.30118,-0.20473 -0.67574,-0.20473 z" />
      <rect
         style="fill:#ff9900;stroke-width:0.355145"
         id="rect513"
         width="3.2897584"
         height="52.70364"
         x="263.24481"
         y="136.87334"
         ry="1.2324471" />
      <text
         xml:space="preserve"
         style="font-style:normal;font-weight:normal;font-size:10.5833px;line-height:1.25;font-family:sans-serif;fill:#ff9900;fill-opacity:1;stroke:none;stroke-width:0.264583"
         x="36.650806"
         y="123.21168"
         id="text531"><tspan
           sodipodi:role="line"
           id="tspan529"
           x="36.650806"
           y="123.21168"
           style="fill:#ff9900;stroke-width:0.264583"></tspan></text>
      <text
         xml:space="preserve"
         style="font-style:normal;font-weight:normal;font-size:10.5833px;line-height:1.25;font-family:sans-serif;fill:#ff9900;fill-opacity:1;stroke:none;stroke-width:0.264583"
         x="260.99069"
         y="154.80888"
         id="text535"><tspan
           sodipodi:role="line"
           id="tspan533"
           x="260.99069"
           y="154.80888"
           style="fill:#ff9900;stroke-width:0.264583"></tspan></text>
    </g>
    <text
       xml:space="preserve"
       id="text537"
       style="font-style:normal;font-weight:normal;font-size:16.9333px;line-height:1.25;font-family:sans-serif;white-space:pre;shape-inside:url(#rect539);fill:#3366cc;fill-opacity:1;stroke:none;"
       transform="translate(42.543546,-45.015744)"><tspan
         x="55.457031"
         y="148.37653"><tspan
           style="fill:#3366cc">Mine</tspan></tspan></text>
    <text
       xml:space="preserve"
       id="text547"
       style="font-style:normal;font-weight:normal;font-size:16.9333px;line-height:1.25;font-family:sans-serif;white-space:pre;shape-inside:url(#rect549);fill:#ff9900;fill-opacity:1;stroke:none;"
       transform="translate(181.10633,-45.015744)"><tspan
         x="55.457031"
         y="148.37653"><tspan
           style="fill:#ff9900">Mine</tspan></tspan></text>
  </g>
</svg>
