<?xml version="1.0" encoding="UTF-8" standalone="no"?>
<svg
   xmlns:dc="http://purl.org/dc/elements/1.1/"
   xmlns:cc="http://creativecommons.org/ns#"
   xmlns:rdf="http://www.w3.org/1999/02/22-rdf-syntax-ns#"
   xmlns:svg="http://www.w3.org/2000/svg"
   xmlns="http://www.w3.org/2000/svg"
   xmlns:xlink="http://www.w3.org/1999/xlink"
   xmlns:sodipodi="http://sodipodi.sourceforge.net/DTD/sodipodi-0.dtd"
   xmlns:inkscape="http://www.inkscape.org/namespaces/inkscape"
   width="297mm"
   height="210mm"
   viewBox="0 0 297 210"
   version="1.1"
   id="svg8"
   inkscape:version="1.0 (4035a4fb49, 2020-05-01)"
   sodipodi:docname="docker.svg">
  <defs
     id="defs2">
    <linearGradient
       inkscape:collect="always"
       id="linearGradient1171">
      <stop
         style="stop-color:#99ccff;stop-opacity:1;"
         offset="0"
         id="stop1167" />
      <stop
         style="stop-color:#3f9fff;stop-opacity:1"
         offset="1"
         id="stop1169" />
    </linearGradient>
    <linearGradient
       id="linearGradient1003"
       inkscape:collect="always">
      <stop
         id="stop999"
         offset="0"
         style="stop-color:#99ccff;stop-opacity:1;" />
      <stop
         id="stop1001"
         offset="1"
         style="stop-color:#57abff;stop-opacity:1" />
    </linearGradient>
    <linearGradient
       id="linearGradient997"
       inkscape:collect="always">
      <stop
         id="stop993"
         offset="0"
         style="stop-color:#99ccff;stop-opacity:1;" />
      <stop
         id="stop995"
         offset="1"
         style="stop-color:#57abff;stop-opacity:1" />
    </linearGradient>
    <linearGradient
       id="linearGradient991"
       inkscape:collect="always">
      <stop
         id="stop987"
         offset="0"
         style="stop-color:#99ccff;stop-opacity:1;" />
      <stop
         id="stop989"
         offset="1"
         style="stop-color:#57abff;stop-opacity:1" />
    </linearGradient>
    <linearGradient
       inkscape:collect="always"
       id="linearGradient966">
      <stop
         style="stop-color:#99ccff;stop-opacity:1;"
         offset="0"
         id="stop962" />
      <stop
         style="stop-color:#57abff;stop-opacity:1"
         offset="1"
         id="stop964" />
    </linearGradient>
    <radialGradient
       inkscape:collect="always"
       xlink:href="#linearGradient1003"
       id="radialGradient968"
       cx="51.369774"
       cy="176.46291"
       fx="51.369774"
       fy="176.46291"
       r="13.125794"
       gradientTransform="matrix(1.2900364,0,0,0.92291622,34.46469,-38.241957)"
       gradientUnits="userSpaceOnUse" />
    <radialGradient
       inkscape:collect="always"
       xlink:href="#linearGradient997"
       id="radialGradient970"
       cx="78.187592"
       cy="176.46291"
       fx="78.187592"
       fy="176.46291"
       r="13.125794"
       gradientTransform="matrix(1.2900364,0,0,0.92291622,34.46469,-38.241957)"
       gradientUnits="userSpaceOnUse" />
    <radialGradient
       inkscape:collect="always"
       xlink:href="#linearGradient991"
       id="radialGradient972"
       cx="105.00539"
       cy="176.46288"
       fx="105.00539"
       fy="176.46288"
       r="13.125794"
       gradientTransform="matrix(1.2900364,0,0,0.92291622,34.46469,-38.241964)"
       gradientUnits="userSpaceOnUse" />
    <radialGradient
       inkscape:collect="always"
       xlink:href="#linearGradient966"
       id="radialGradient974"
       cx="131.82321"
       cy="176.46288"
       fx="131.82321"
       fy="176.46288"
       r="13.125794"
       gradientTransform="matrix(1.2900364,0,0,0.92291622,34.46469,-38.241964)"
       gradientUnits="userSpaceOnUse" />
    <radialGradient
       inkscape:collect="always"
       xlink:href="#linearGradient997"
       id="radialGradient1009"
       gradientUnits="userSpaceOnUse"
       gradientTransform="matrix(1.2900364,0,0,0.92291622,34.46469,-63.644117)"
       cx="78.187592"
       cy="176.46291"
       fx="78.187592"
       fy="176.46291"
       r="13.125794" />
    <radialGradient
       inkscape:collect="always"
       xlink:href="#linearGradient997"
       id="radialGradient1013"
       gradientUnits="userSpaceOnUse"
       gradientTransform="matrix(1.2900364,0,0,0.92291622,69.734902,-63.644117)"
       cx="78.187592"
       cy="176.46291"
       fx="78.187592"
       fy="176.46291"
       r="13.125794" />
    <radialGradient
       inkscape:collect="always"
       xlink:href="#linearGradient1171"
       id="radialGradient1165"
       cx="-92.068001"
       cy="94.01358"
       fx="-92.068001"
       fy="94.01358"
       r="13.773459"
       gradientTransform="matrix(1,0,0,2.8357214,179.63109,-218.08105)"
       gradientUnits="userSpaceOnUse" />
    <radialGradient
       inkscape:collect="always"
       xlink:href="#linearGradient1171"
       id="radialGradient1175"
       gradientUnits="userSpaceOnUse"
       gradientTransform="matrix(0.30744646,0,0,0.62067397,115.86907,-49.692796)"
       cx="-92.068001"
       cy="94.01358"
       fx="-92.068001"
       fy="94.01358"
       r="13.773459" />
  </defs>
  <sodipodi:namedview
     id="base"
     pagecolor="#ffffff"
     bordercolor="#666666"
     borderopacity="1.0"
     inkscape:pageopacity="0.0"
     inkscape:pageshadow="2"
     inkscape:zoom="0.49497475"
     inkscape:cx="516.64633"
     inkscape:cy="387.04172"
     inkscape:document-units="mm"
     inkscape:current-layer="layer1"
     inkscape:document-rotation="0"
     showgrid="false"
     inkscape:snap-global="false"
     inkscape:window-width="1360"
     inkscape:window-height="736"
     inkscape:window-x="0"
     inkscape:window-y="0"
     inkscape:window-maximized="1"
     showguides="true" />
  <metadata
     id="metadata5">
    <rdf:RDF>
      <cc:Work
         rdf:about="">
        <dc:format>image/svg+xml</dc:format>
        <dc:type
           rdf:resource="http://purl.org/dc/dcmitype/StillImage" />
        <dc:title />
      </cc:Work>
    </rdf:RDF>
  </metadata>
  <g
     inkscape:label="Layer 1"
     inkscape:groupmode="layer"
     id="layer1">
    <rect
       style="opacity:1;fill:#c6deed;fill-opacity:1;stroke:none;stroke-width:0.264583"
       id="rect1205"
       width="419.44678"
       height="243.52136"
       x="-74.15963"
       y="-21.899658" />
    <g
       id="g880"
       transform="matrix(1.2900364,0,0,1.3736583,34.464692,-117.78121)">
      <path
         id="path936"
         style="fill:#0083d7;fill-opacity:0.956613;stroke:none;stroke-width:0.291618"
         d="m 25.279077,185.86772 c 0.991602,20.87907 31.264196,37.51401 68.268701,37.51399 30.324322,-1.2e-4 52.276122,-7.62688 65.001302,-26.69464 1.62521,-2.43526 10.59484,-13.7155 12.82239,-20.77195 0.76924,-2.43679 -3.47805,-4.27916 -3.4321,-5.24662 l -23.67967,15.19922 z"
         sodipodi:nodetypes="ccssccc" />
      <path
         sodipodi:nodetypes="ccc"
         d="m 192.84622,174.63994 c -8.56134,-5.11496 -17.11906,-10.40056 -26.00887,0 12.31769,9.06024 17.83063,4.67268 26.00887,0 z"
         style="fill:#0083d7;fill-opacity:0.956613;stroke:none;stroke-width:0.147351"
         id="rect843" />
      <path
         inkscape:transform-center-y="-9.3304643"
         inkscape:transform-center-x="-9.3654556"
         id="path857"
         style="fill:#0083d7;fill-opacity:0.956613;stroke:none;stroke-width:0.147351"
         d="m 185.20301,156.07067 c -9.67301,2.42734 -19.46402,4.73134 -18.40935,18.37272 15.11876,-2.28833 15.92149,-9.28824 18.40935,-18.37272 z"
         sodipodi:nodetypes="ccc" />
      <path
         sodipodi:nodetypes="ccssccc"
         d="m 25.279077,185.86772 c 0.991602,20.87907 31.264196,37.51401 68.268701,37.51399 30.324322,-1.2e-4 52.276122,-7.62688 65.001302,-26.69464 1.62521,-2.43526 10.59484,-13.7155 12.82239,-20.77195 0.76924,-2.43679 -3.47805,-4.27916 -3.4321,-5.24662 l -23.67967,15.19922 z"
         style="fill:#0083d7;fill-opacity:0.956613;stroke:none;stroke-width:0.291618"
         id="path833" />
      <path
         id="path938"
         style="fill:#0083d7;fill-opacity:0.956613;stroke:none;stroke-width:0.291618"
         d="m 25.279077,185.86772 c 0.991602,20.87907 31.264196,37.51401 68.268701,37.51399 30.324322,-1.2e-4 52.276122,-7.62688 65.001302,-26.69464 1.62521,-2.43526 10.59484,-13.7155 12.82239,-20.77195 0.76924,-2.43679 -3.47805,-4.27916 -3.4321,-5.24662 l -23.67967,15.19922 z"
         sodipodi:nodetypes="ccssccc" />
      <path
         sodipodi:nodetypes="ccssccc"
         d="m 25.279077,185.86772 c 0.991602,20.87907 31.264196,37.51401 68.268701,37.51399 30.324322,-1.2e-4 52.276122,-7.62688 65.001302,-26.69464 1.62521,-2.43526 10.59484,-13.7155 12.82239,-20.77195 0.76924,-2.43679 -3.47805,-4.27916 -3.4321,-5.24662 l -23.67967,15.19922 z"
         style="fill:#0083d7;fill-opacity:0.956613;stroke:none;stroke-width:0.291618"
         id="path940" />
    </g>
    <ellipse
       style="fill:#deffff;fill-opacity:0.956613;stroke:none;stroke-width:0.35221"
       id="path882"
       cx="117.10243"
       cy="152.98076"
       rx="3.6513736"
       ry="3.3257782" />
    <ellipse
       style="fill:#000000;fill-opacity:0.956613;stroke:none;stroke-width:0.246282"
       id="path884"
       cx="117.43659"
       cy="152.87799"
       rx="1.5407794"
       ry="1.2529861" />
    <path
       id="rect886"
       style="fill:#deffff;fill-opacity:0.956613;stroke:none;stroke-width:0.356754"
       d="m 88.707968,170.71303 c 9.72466,8.55487 17.154172,10.53659 33.309842,14.48009 -3.59638,-5.15414 -6.04013,-11.19136 -5.85847,-19.2407 -7.33024,9.07069 -17.345311,7.10269 -27.451372,4.76061 z"
       sodipodi:nodetypes="cccc" />
    <path
       id="path945"
       style="fill:#000000;fill-opacity:0.956613;stroke:none;stroke-width:0.356754"
       d="m 115.36804,165.60104 c -7.33024,9.07068 -17.345708,7.10238 -27.45177,4.7603 4.457252,3.92108 8.434091,6.4598 12.98824,8.44093 -4.228459,-1.92965 -7.99887,-4.39706 -12.196263,-8.08955 9.746041,2.25866 19.406043,4.16608 26.656453,-3.83606 -0.005,-0.42053 -0.006,-0.84369 0.003,-1.27562 z" />
    <rect
       style="fill:url(#radialGradient968);fill-opacity:1;stroke:none;stroke-width:0.35221"
       id="rect952"
       width="33.865505"
       height="24.228018"
       x="83.800819"
       y="112.50452" />
    <rect
       y="112.50452"
       x="118.39678"
       height="24.228018"
       width="33.865505"
       id="rect954"
       style="fill:url(#radialGradient970);fill-opacity:1;stroke:none;stroke-width:0.35221" />
    <rect
       style="fill:url(#radialGradient972);fill-opacity:1;stroke:none;stroke-width:0.35221"
       id="rect956"
       width="33.865505"
       height="24.228018"
       x="152.99274"
       y="112.50449" />
    <rect
       y="112.50449"
       x="187.5887"
       height="24.228018"
       width="33.865505"
       id="rect958"
       style="fill:url(#radialGradient974);fill-opacity:1;stroke:none;stroke-width:0.35221" />
    <rect
       style="fill:url(#radialGradient1009);fill-opacity:1;stroke:none;stroke-width:0.35221"
       id="rect1005"
       width="33.865505"
       height="24.228018"
       x="118.39678"
       y="87.102356" />
    <rect
       y="87.102356"
       x="153.66701"
       height="24.228018"
       width="33.865505"
       id="rect1011"
       style="fill:url(#radialGradient1013);fill-opacity:1;stroke:none;stroke-width:0.35221" />
    <rect
       y="0.11016094"
       x="83.328484"
       height="17.097654"
       width="8.469203"
       id="rect1173"
       style="opacity:1;fill:url(#radialGradient1175);fill-opacity:1;stroke:none;stroke-width:0.0553843"
       transform="rotate(28.173635)" />
    <rect
       style="opacity:1;fill:url(#radialGradient1165);fill-opacity:1;stroke:none;stroke-width:0.213502"
       id="rect1035"
       width="27.546919"
       height="78.115387"
       x="73.789627"
       y="9.4575729"
       transform="rotate(28.173635)" />
    <ellipse
       style="opacity:1;fill:#333366;fill-opacity:1;stroke:none;stroke-width:0.151764"
       id="path1037"
       cx="87.272308"
       cy="47.18676"
       rx="3.8845625"
       ry="5.1758952"
       transform="rotate(28.173635)" />
    <g
       id="g1068"
       transform="matrix(0.55315958,0.29627393,-0.24755571,0.46220002,131.92805,61.215043)">
      <g
         id="g1045">
        <rect
           style="opacity:1;fill:#333366;fill-opacity:1;stroke:none;stroke-width:0.264583"
           id="rect1039"
           width="5.214488"
           height="1.6458266"
           x="-32.572601"
           y="135.01012"
           transform="rotate(32.526822)" />
        <rect
           transform="matrix(-0.84313983,0.53769437,0.53769437,0.84313983,0,0)"
           y="27.398962"
           x="136.48648"
           height="1.6458266"
           width="5.214488"
           id="rect1041"
           style="opacity:1;fill:#333366;fill-opacity:1;stroke:none;stroke-width:0.264583" />
      </g>
      <g
         transform="translate(-0.43212298,5.8028841)"
         id="g1051">
        <rect
           transform="rotate(32.526822)"
           y="135.01012"
           x="-32.572601"
           height="1.6458266"
           width="5.214488"
           id="rect1047"
           style="opacity:1;fill:#333366;fill-opacity:1;stroke:none;stroke-width:0.264583" />
        <rect
           style="opacity:1;fill:#333366;fill-opacity:1;stroke:none;stroke-width:0.264583"
           id="rect1049"
           width="5.214488"
           height="1.6458266"
           x="136.48648"
           y="27.398962"
           transform="matrix(-0.84313983,0.53769437,0.53769437,0.84313983,0,0)" />
      </g>
      <g
         id="g1057"
         transform="translate(0.13820236,11.085189)">
        <rect
           style="opacity:1;fill:#333366;fill-opacity:1;stroke:none;stroke-width:0.264583"
           id="rect1053"
           width="5.214488"
           height="1.6458266"
           x="-32.572601"
           y="135.01012"
           transform="rotate(32.526822)" />
        <rect
           transform="matrix(-0.84313983,0.53769437,0.53769437,0.84313983,0,0)"
           y="27.398962"
           x="136.48648"
           height="1.6458266"
           width="5.214488"
           id="rect1055"
           style="opacity:1;fill:#333366;fill-opacity:1;stroke:none;stroke-width:0.264583" />
      </g>
    </g>
    <g
       id="g1088"
       transform="matrix(0.55315958,0.29627393,-0.24755571,0.46220002,140.61456,66.136193)">
      <g
         id="g1074">
        <rect
           transform="rotate(32.526822)"
           y="135.01012"
           x="-32.572601"
           height="1.6458266"
           width="5.214488"
           id="rect1070"
           style="opacity:1;fill:#333366;fill-opacity:1;stroke:none;stroke-width:0.264583" />
        <rect
           style="opacity:1;fill:#333366;fill-opacity:1;stroke:none;stroke-width:0.264583"
           id="rect1072"
           width="5.214488"
           height="1.6458266"
           x="136.48648"
           y="27.398962"
           transform="matrix(-0.84313983,0.53769437,0.53769437,0.84313983,0,0)" />
      </g>
      <g
         id="g1080"
         transform="translate(-0.43212298,5.8028841)">
        <rect
           style="opacity:1;fill:#333366;fill-opacity:1;stroke:none;stroke-width:0.264583"
           id="rect1076"
           width="5.214488"
           height="1.6458266"
           x="-32.572601"
           y="135.01012"
           transform="rotate(32.526822)" />
        <rect
           transform="matrix(-0.84313983,0.53769437,0.53769437,0.84313983,0,0)"
           y="27.398962"
           x="136.48648"
           height="1.6458266"
           width="5.214488"
           id="rect1078"
           style="opacity:1;fill:#333366;fill-opacity:1;stroke:none;stroke-width:0.264583" />
      </g>
      <g
         transform="translate(0.13820236,11.085189)"
         id="g1086">
        <rect
           transform="rotate(32.526822)"
           y="135.01012"
           x="-32.572601"
           height="1.6458266"
           width="5.214488"
           id="rect1082"
           style="opacity:1;fill:#333366;fill-opacity:1;stroke:none;stroke-width:0.264583" />
        <rect
           style="opacity:1;fill:#333366;fill-opacity:1;stroke:none;stroke-width:0.264583"
           id="rect1084"
           width="5.214488"
           height="1.6458266"
           x="136.48648"
           y="27.398962"
           transform="matrix(-0.84313983,0.53769437,0.53769437,0.84313983,0,0)" />
      </g>
    </g>
    <path
       id="path1090"
       style="opacity:1;fill:#333366;fill-opacity:1;stroke:none;stroke-width:0.201597"
       d="m 60.898426,71.50169 a 12.153646,11.833625 28.173635 0 0 -16.291121,4.698491 12.153646,11.833625 28.173635 0 0 5.126734,16.169965 12.153646,11.833625 28.173635 0 0 16.300728,-4.69335 12.153646,11.833625 28.173635 0 0 -5.12638,-16.169771 12.153646,11.833625 28.173635 0 0 -0.01,-0.0053 z m -1.077862,1.981652 0.0025,0.0013 c 0.0059,0.0032 0.01187,0.0063 0.01779,0.0095 a 2.3700651,2.2560656 28.173635 0 0 0.0025,0.0013 c 2.245366,1.202635 3.999955,3.297099 4.766092,5.713513 0.766135,2.41642 0.526378,5.126 -0.663646,7.34801 -1.189972,2.22225 -3.312645,3.92284 -5.7488,4.62438 -2.436162,0.70154 -5.152161,0.40257 -7.397706,-0.80015 -2.245544,-1.20272 -3.999503,-3.29788 -4.765547,-5.71453 -0.766058,-2.41665 -0.526766,-5.12599 0.663638,-7.348007 1.18835,-2.218566 3.30535,-3.917619 5.736809,-4.620777 2.430494,-0.70289 5.142166,-0.409058 7.386392,0.785367 z" />
    <path
       id="path1154"
       style="opacity:1;fill:#333366;fill-opacity:1;stroke:none;stroke-width:0.201597"
       d="m 55.386806,72.369346 c -0.363424,-0.0095 -0.727154,-0.04339 -1.088919,-0.01322 -0.432104,0.03604 -0.853328,0.140293 -1.276169,0.233816 l -0.432643,18.528589 c 0.599475,0.18149 1.215532,0.30918 1.83773,0.3768 0.170339,0.0185 0.34168,-0.003 0.512658,0.007 z" />
    <rect
       style="opacity:1;fill:#333366;fill-opacity:1;stroke:none;stroke-width:0.264583"
       id="rect1177"
       width="44.575768"
       height="3.00495"
       x="96.792473"
       y="0.39642265"
       transform="rotate(28.173635)" />
    <rect
       y="18.817354"
       x="93.952843"
       height="3.00495"
       width="44.575768"
       id="rect1179"
       style="opacity:1;fill:#333366;fill-opacity:1;stroke:none;stroke-width:0.264583"
       transform="rotate(17.252924)" />
    <rect
       transform="rotate(38.590913)"
       style="opacity:1;fill:#333366;fill-opacity:1;stroke:none;stroke-width:0.264583"
       id="rect1181"
       width="44.575768"
       height="3.00495"
       x="95.813919"
       y="-17.000393" />
    <rect
       transform="rotate(17.252924)"
       style="opacity:1;fill:#333366;fill-opacity:1;stroke:none;stroke-width:0.264583"
       id="rect1183"
       width="44.575768"
       height="3.00495"
       x="93.952843"
       y="18.817354" />
  </g>
</svg>
